<?xml version="1.0" standalone="no"?>
<!DOCTYPE svg PUBLIC "-//W3C//DTD SVG 20010904//EN"
 "http://www.w3.org/TR/2001/REC-SVG-20010904/DTD/svg10.dtd">
<svg version="1.0" xmlns="http://www.w3.org/2000/svg"
 width="512.000000pt" height="512.000000pt" viewBox="0 0 512.000000 512.000000"
 preserveAspectRatio="xMidYMid meet">
<metadata>
Created by potrace 1.11, written by Peter Selinger 2001-2013
</metadata>
<g transform="translate(0.000000,512.000000) scale(0.100000,-0.100000)"
fill="#000000" stroke="none">
<path d="M444 5105 c-207 -45 -385 -225 -430 -434 -21 -99 -21 -4123 0 -4222
45 -211 224 -390 435 -435 99 -21 4123 -21 4222 0 211 45 390 224 435 435 21
99 21 4123 0 4222 -45 211 -224 390 -435 435 -95 20 -4134 19 -4227 -1z m1262
-959 c128 -34 251 -134 305 -246 14 -30 142 -448 285 -927 142 -480 261 -873
264 -873 3 0 122 390 263 868 142 477 271 894 286 927 72 156 243 265 417 265
181 0 373 -135 419 -294 26 -91 425 -2513 425 -2580 0 -128 -70 -240 -178
-288 -65 -30 -181 -35 -258 -13 -108 30 -159 80 -199 195 -8 24 -74 449 -146
944 -134 931 -137 951 -144 944 -3 -3 -122 -414 -265 -914 -143 -500 -270
-935 -282 -967 -29 -79 -91 -147 -170 -183 -57 -26 -73 -29 -168 -29 -92 0
-112 3 -160 26 -78 36 -123 79 -160 152 -20 41 -119 370 -290 972 -143 501
-264 919 -269 930 -7 18 -9 17 -14 -10 -4 -16 -63 -421 -132 -900 -69 -478
-133 -900 -141 -937 -22 -94 -72 -164 -149 -203 -54 -28 -66 -30 -164 -30 -87
0 -114 4 -152 21 -60 28 -125 94 -152 153 -45 101 -47 88 181 1451 224 1343
216 1305 291 1398 98 125 300 190 457 148z"/>
</g>
</svg>
